HIERARCHY
ROOT mixamorig:Hips
{
	OFFSET 0.000000 201.639420 0.000000
	CHANNELS 6 Xposition Yposition Zposition Xrotation Yrotation Zrotation
	JOINT mixamorig:Spine
	{
		OFFSET 0.006200 19.524994 -2.481800
		CHANNELS 3 Xrotation Yrotation Zrotation
		JOINT mixamorig:Spine1
		{
			OFFSET -0.000900 22.835007 -2.825400
			CHANNELS 3 Xrotation Yrotation Zrotation
			JOINT mixamorig:Spine2
			{
				OFFSET -0.020600 26.552490 -3.193300
				CHANNELS 3 Xrotation Yrotation Zrotation
				JOINT mixamorig:Neck
				{
					OFFSET -0.060000 30.701813 1.352200
					CHANNELS 3 Xrotation Yrotation Zrotation
					JOINT mixamorig:Head
					{
						OFFSET -0.087200 22.547607 3.670900
						CHANNELS 3 Xrotation Yrotation Zrotation
						JOINT mixamorig:HeadTop_End
						{
							OFFSET -0.830600 40.355194 7.893500
							CHANNELS 3 Xrotation Yrotation Zrotation
							End Site
							{
								OFFSET 0.000000 30.592346 0.000000
							}
						}
						JOINT mixamorig:RightEye
						{
							OFFSET -6.302100 18.118591 16.197100
							CHANNELS 3 Xrotation Yrotation Zrotation
							End Site
							{
								OFFSET 0.000000 30.592346 0.000000
							}
						}
						JOINT mixamorig:LeftEye
						{
							OFFSET 6.741500 18.382690 16.401899
							CHANNELS 3 Xrotation Yrotation Zrotation
							End Site
							{
								OFFSET 0.000000 30.592346 0.000000
							}
						}
					}
				}
				JOINT mixamorig:LeftShoulder
				{
					OFFSET 11.924900 18.230499 1.425400
					CHANNELS 3 Xrotation Yrotation Zrotation
					JOINT mixamorig:LeftArm
					{
						OFFSET 25.435989 -0.697632 -5.229300
						CHANNELS 3 Xrotation Yrotation Zrotation
						JOINT mixamorig:LeftForeArm
						{
							OFFSET 54.684776 0.000000 0.000000
							CHANNELS 3 Xrotation Yrotation Zrotation
							JOINT mixamorig:LeftHand
							{
								OFFSET 55.098175 0.000000 0.000000
								CHANNELS 3 Xrotation Yrotation Zrotation
								JOINT mixamorig:LeftHandMiddle1
								{
									OFFSET 23.369751 0.000000 0.000000
									CHANNELS 3 Xrotation Yrotation Zrotation
									JOINT mixamorig:LeftHandMiddle2
									{
										OFFSET 6.378677 0.000000 0.000000
										CHANNELS 3 Xrotation Yrotation Zrotation
										JOINT mixamorig:LeftHandMiddle3
										{
											OFFSET 6.148331 0.000000 0.000000
											CHANNELS 3 Xrotation Yrotation Zrotation
											JOINT mixamorig:LeftHandMiddle4
											{
												OFFSET 6.582504 0.000000 0.000000
												CHANNELS 3 Xrotation Yrotation Zrotation
												End Site
												{
													OFFSET -1.168900 6.395691 1.028606
												}
											}
										}
									}
								}
								JOINT mixamorig:LeftHandThumb1
								{
									OFFSET 7.235672 -3.848206 5.434273
									CHANNELS 3 Xrotation Yrotation Zrotation
									JOINT mixamorig:LeftHandThumb2
									{
										OFFSET 6.568451 -3.792297 3.792300
										CHANNELS 3 Xrotation Yrotation Zrotation
										JOINT mixamorig:LeftHandThumb3
										{
											OFFSET 6.063080 -3.500519 3.500518
											CHANNELS 3 Xrotation Yrotation Zrotation
											JOINT mixamorig:LeftHandThumb4
											{
												OFFSET 4.793182 -2.767334 2.767349
												CHANNELS 3 Xrotation Yrotation Zrotation
												End Site
												{
													OFFSET 0.101639 6.054260 1.275483
												}
											}
										}
									}
								}
								JOINT mixamorig:LeftHandIndex1
								{
									OFFSET 23.101074 -0.309540 4.992809
									CHANNELS 3 Xrotation Yrotation Zrotation
									JOINT mixamorig:LeftHandIndex2
									{
										OFFSET 6.226883 0.000000 0.000000
										CHANNELS 3 Xrotation Yrotation Zrotation
										JOINT mixamorig:LeftHandIndex3
										{
											OFFSET 6.094330 0.000000 0.000000
											CHANNELS 3 Xrotation Yrotation Zrotation
											JOINT mixamorig:LeftHandIndex4
											{
												OFFSET 5.482605 0.000000 0.000000
												CHANNELS 3 Xrotation Yrotation Zrotation
												End Site
												{
													OFFSET -1.427902 5.233032 0.797164
												}
											}
										}
									}
								}
								JOINT mixamorig:LeftHandRing1
								{
									OFFSET 22.299240 0.021149 -3.964172
									CHANNELS 3 Xrotation Yrotation Zrotation
									JOINT mixamorig:LeftHandRing2
									{
										OFFSET 6.321869 0.000000 0.000000
										CHANNELS 3 Xrotation Yrotation Zrotation
										JOINT mixamorig:LeftHandRing3
										{
											OFFSET 5.899796 0.000000 0.000000
											CHANNELS 3 Xrotation Yrotation Zrotation
											JOINT mixamorig:LeftHandRing4
											{
												OFFSET 6.517899 0.000000 0.000000
												CHANNELS 3 Xrotation Yrotation Zrotation
												End Site
												{
													OFFSET -1.637299 6.232208 0.980890
												}
											}
										}
									}
								}
								JOINT mixamorig:LeftHandPinky1
								{
									OFFSET 20.463791 -0.302338 -8.562233
									CHANNELS 3 Xrotation Yrotation Zrotation
									JOINT mixamorig:LeftHandPinky2
									{
										OFFSET 6.908646 0.000000 0.000000
										CHANNELS 3 Xrotation Yrotation Zrotation
										JOINT mixamorig:LeftHandPinky3
										{
											OFFSET 4.622849 0.000000 0.000000
											CHANNELS 3 Xrotation Yrotation Zrotation
											JOINT mixamorig:LeftHandPinky4
											{
												OFFSET 5.216080 0.000000 0.000000
												CHANNELS 3 Xrotation Yrotation Zrotation
												End Site
												{
													OFFSET -0.606308 5.116241 0.814926
												}
											}
										}
									}
								}
							}
						}
					}
				}
				JOINT mixamorig:RightShoulder
				{
					OFFSET -12.001300 18.284088 1.348900
					CHANNELS 3 Xrotation Yrotation Zrotation
					JOINT mixamorig:RightArm
					{
						OFFSET -25.308500 -0.751312 -5.164599
						CHANNELS 3 Xrotation Yrotation Zrotation
						JOINT mixamorig:RightForeArm
						{
							OFFSET -54.684429 0.000000 0.000000
							CHANNELS 3 Xrotation Yrotation Zrotation
							JOINT mixamorig:RightHand
							{
								OFFSET -55.150291 0.000000 0.000000
								CHANNELS 3 Xrotation Yrotation Zrotation
								JOINT mixamorig:RightHandMiddle1
								{
									OFFSET -23.317566 0.000000 0.000000
									CHANNELS 3 Xrotation Yrotation Zrotation
									JOINT mixamorig:RightHandMiddle2
									{
										OFFSET -6.378403 0.000000 0.000000
										CHANNELS 3 Xrotation Yrotation Zrotation
										JOINT mixamorig:RightHandMiddle3
										{
											OFFSET -6.148193 0.000000 0.000000
											CHANNELS 3 Xrotation Yrotation Zrotation
											JOINT mixamorig:RightHandMiddle4
											{
												OFFSET -6.583389 0.000000 0.000000
												CHANNELS 3 Xrotation Yrotation Zrotation
												End Site
												{
													OFFSET 1.171692 6.395905 1.029786
												}
											}
										}
									}
								}
								JOINT mixamorig:RightHandThumb1
								{
									OFFSET -7.190521 -3.860474 5.435846
									CHANNELS 3 Xrotation Yrotation Zrotation
									JOINT mixamorig:RightHandThumb2
									{
										OFFSET -6.567429 -3.791718 3.791708
										CHANNELS 3 Xrotation Yrotation Zrotation
										JOINT mixamorig:RightHandThumb3
										{
											OFFSET -6.062469 -3.500153 3.500166
											CHANNELS 3 Xrotation Yrotation Zrotation
											JOINT mixamorig:RightHandThumb4
											{
												OFFSET -4.792618 -2.767029 2.767022
												CHANNELS 3 Xrotation Yrotation Zrotation
												End Site
												{
													OFFSET -0.100327 6.053253 1.276754
												}
											}
										}
									}
								}
								JOINT mixamorig:RightHandIndex1
								{
									OFFSET -23.048981 -0.310791 4.992554
									CHANNELS 3 Xrotation Yrotation Zrotation
									JOINT mixamorig:RightHandIndex2
									{
										OFFSET -6.227539 0.000000 0.000000
										CHANNELS 3 Xrotation Yrotation Zrotation
										JOINT mixamorig:RightHandIndex3
										{
											OFFSET -6.095047 0.000000 0.000000
											CHANNELS 3 Xrotation Yrotation Zrotation
											JOINT mixamorig:RightHandIndex4
											{
												OFFSET -5.484772 0.000000 0.000000
												CHANNELS 3 Xrotation Yrotation Zrotation
												End Site
												{
													OFFSET 1.420593 5.237305 0.797056
												}
											}
										}
									}
								}
								JOINT mixamorig:RightHandRing1
								{
									OFFSET -22.246323 0.020569 -3.963762
									CHANNELS 3 Xrotation Yrotation Zrotation
									JOINT mixamorig:RightHandRing2
									{
										OFFSET -6.322128 0.000000 0.000000
										CHANNELS 3 Xrotation Yrotation Zrotation
										JOINT mixamorig:RightHandRing3
										{
											OFFSET -5.900024 0.000000 0.000000
											CHANNELS 3 Xrotation Yrotation Zrotation
											JOINT mixamorig:RightHandRing4
											{
												OFFSET -6.518356 0.000000 0.000000
												CHANNELS 3 Xrotation Yrotation Zrotation
												End Site
												{
													OFFSET 1.636398 6.232697 0.982186
												}
											}
										}
									}
								}
								JOINT mixamorig:RightHandPinky1
								{
									OFFSET -20.411011 -0.303314 -8.561701
									CHANNELS 3 Xrotation Yrotation Zrotation
									JOINT mixamorig:RightHandPinky2
									{
										OFFSET -6.907349 0.000000 0.000000
										CHANNELS 3 Xrotation Yrotation Zrotation
										JOINT mixamorig:RightHandPinky3
										{
											OFFSET -4.623840 0.000000 0.000000
											CHANNELS 3 Xrotation Yrotation Zrotation
											JOINT mixamorig:RightHandPinky4
											{
												OFFSET -5.218353 0.000000 0.000000
												CHANNELS 3 Xrotation Yrotation Zrotation
												End Site
												{
													OFFSET 0.602097 5.118835 0.816273
												}
											}
										}
									}
								}
							}
						}
					}
				}
			}
		}
	}
	JOINT mixamorig:LeftUpLeg
	{
		OFFSET 18.168400 -13.561905 -0.039000
		CHANNELS 3 Xrotation Yrotation Zrotation
		JOINT mixamorig:LeftLeg
		{
			OFFSET 0.577358 -80.825211 -3.695000
			CHANNELS 3 Xrotation Yrotation Zrotation
			JOINT mixamorig:LeftFoot
			{
				OFFSET -0.577356 -83.370262 -6.520700
				CHANNELS 3 Xrotation Yrotation Zrotation
				JOINT mixamorig:LeftToeBase
				{
					OFFSET 0.750401 -20.798306 25.135401
					CHANNELS 3 Xrotation Yrotation Zrotation
					JOINT mixamorig:LeftToe_End
					{
						OFFSET -0.000500 0.001200 19.917799
						CHANNELS 3 Xrotation Yrotation Zrotation
						End Site
						{
							OFFSET 0.000000 19.917805 0.000000
						}
					}
				}
			}
		}
	}
	JOINT mixamorig:RightUpLeg
	{
		OFFSET -18.162500 -13.585098 -0.041000
		CHANNELS 3 Xrotation Yrotation Zrotation
		JOINT mixamorig:RightLeg
		{
			OFFSET -0.595024 -80.945297 -3.631900
			CHANNELS 3 Xrotation Yrotation Zrotation
			JOINT mixamorig:RightFoot
			{
				OFFSET 0.595024 -83.218193 -6.561200
				CHANNELS 3 Xrotation Yrotation Zrotation
				JOINT mixamorig:RightToeBase
				{
					OFFSET -0.753601 -20.807106 25.115000
					CHANNELS 3 Xrotation Yrotation Zrotation
					JOINT mixamorig:RightToe_End
					{
						OFFSET 0.000299 0.001700 19.918200
						CHANNELS 3 Xrotation Yrotation Zrotation
						End Site
						{
							OFFSET 0.000000 19.918203 0.000000
						}
					}
				}
			}
		}
	}
}
MOTION
Frames: 5
Frame Time: 0.033333
4.161249 178.498322 -11.417843 11.654534 -2.735534 -0.490693 9.109189 -0.030557 0.875323 18.681134 -0.008987 0.764516 18.684068 0.017128 0.677041 -12.391904 -1.364029 -2.569802 -25.045612 -11.181919 3.199156 -0.000001 0.000001 -0.000000 -0.000001 0.000001 -0.000000 -0.000001 0.000001 -0.000000 0.682458 -6.469859 -2.131145 38.202843 -36.480556 -9.078716 -0.000046 -81.673927 -0.000039 20.410526 -1.526226 35.614744 0.020279 0.528906 -4.387016 0.029860 0.641941 -5.327403 0.007417 0.320375 -2.655622 0.000002 -0.000004 0.000001 -4.476085 -9.801952 14.664925 3.939051 7.948718 0.746809 -0.579471 1.574991 2.538716 0.000003 0.000003 0.000003 0.020408 0.530819 -4.403002 0.029696 0.640035 -5.311413 0.007409 0.320366 -2.655622 0.000000 -0.000003 -0.000001 0.020408 0.530823 -4.403006 0.029694 0.640032 -5.311413 0.007406 0.320385 -2.655630 -0.000001 0.000000 -0.000000 0.314373 4.574478 -3.905676 0.017366 -3.414522 -5.820022 0.007412 0.320389 -2.655619 0.000000 -0.000006 0.000001 0.392894 -2.349884 5.763696 27.355227 39.898591 18.338843 -0.000019 75.615337 0.000047 30.670445 13.747189 -44.183206 0.275954 -1.943111 16.163952 0.184623 -1.594794 13.206375 0.046302 -0.802743 6.601902 0.000002 -0.000000 -0.000001 -5.232591 1.840873 -5.713451 4.780923 -14.354638 -6.620801 -1.025245 -2.626386 -5.358251 0.000000 -0.000000 -0.000001 0.275954 -1.943107 16.163955 0.184641 -1.594810 13.206358 0.046288 -0.802722 6.601914 0.000002 0.000004 0.000000 0.275949 -1.943112 16.163957 0.184625 -1.594800 13.206375 0.046305 -0.802736 6.601899 -0.000001 -0.000002 0.000004 0.275954 -1.943100 16.163955 0.184632 -1.594818 13.206369 0.046296 -0.802717 6.601917 -0.000001 -0.000000 -0.000000 -45.205013 -2.246659 18.223208 43.162725 0.177620 7.709900 -7.414129 2.600265 -22.987562 -1.412757 0.000004 0.000002 -0.000000 0.000000 0.000000 -47.421098 -2.499461 -21.210268 43.820294 9.303936 -0.481242 -9.298963 1.462224 15.906358 -0.008635 0.000002 0.000004 -0.000000 -0.000000 -0.000000 
3.595438 178.448135 -11.580391 11.983652 -3.066659 -0.519231 9.074136 0.017212 1.125062 18.624994 -0.049094 0.889397 18.628188 0.028874 0.807898 -12.011437 -1.373132 -2.414205 -24.110414 -11.080970 3.610931 0.000000 0.000001 -0.000001 0.000000 0.000001 -0.000001 0.000000 0.000001 -0.000001 0.694339 -6.583543 -1.965391 38.063753 -36.912111 -9.777516 0.000070 -81.519728 0.000078 20.273537 -1.147731 36.271166 0.020276 0.528898 -4.387010 0.029855 0.641936 -5.327408 0.007417 0.320372 -2.655619 -0.000002 0.000003 -0.000003 -4.476089 -9.801957 14.664925 3.939052 7.948713 0.746806 -0.579473 1.574993 2.538708 0.000002 -0.000002 -0.000002 0.020409 0.530819 -4.403003 0.029695 0.640030 -5.311413 0.007408 0.320370 -2.655625 0.000002 0.000001 -0.000000 0.020406 0.530818 -4.403007 0.029694 0.640028 -5.311413 0.007410 0.320381 -2.655623 0.000001 -0.000002 -0.000001 0.314372 4.574468 -3.905675 0.017366 -3.414518 -5.820021 0.007414 0.320387 -2.655622 0.000000 -0.000002 -0.000000 0.391696 -2.511688 5.863377 27.765588 39.459485 18.157696 -0.000013 76.156855 0.000013 31.792936 12.802454 -44.722299 0.275951 -1.943089 16.163953 0.184643 -1.594809 13.206360 0.046293 -0.802719 6.601914 0.000002 -0.000004 0.000000 -5.232588 1.840877 -5.713454 4.780921 -14.354641 -6.620792 -1.025242 -2.626384 -5.358252 -0.000003 0.000001 -0.000001 0.275957 -1.943091 16.163952 0.184646 -1.594796 13.206355 0.046283 -0.802731 6.601917 0.000001 0.000000 -0.000001 0.275942 -1.943093 16.163962 0.184649 -1.594805 13.206353 0.046289 -0.802726 6.601904 -0.000000 0.000001 0.000002 0.275953 -1.943090 16.163962 0.184635 -1.594800 13.206359 0.046301 -0.802723 6.601910 -0.000002 0.000001 0.000002 -45.480269 -2.070456 18.898780 42.948168 -0.045911 7.373595 -7.239086 2.552837 -22.980897 -1.485724 0.000005 0.000010 -0.000000 0.000002 0.000000 -47.834407 -1.973158 -20.259753 44.177312 9.244121 -0.942790 -9.378235 0.772962 15.952113 -0.006043 0.000006 -0.000005 0.000000 0.000000 -0.000000 
3.066097 178.464890 -11.645229 12.420244 -3.489631 -0.541322 8.963682 0.045971 1.299954 18.429782 -0.107188 0.965585 18.432766 0.009340 0.893543 -11.666450 -1.338559 -2.236344 -23.249257 -10.781126 4.253357 0.000001 -0.000002 0.000000 0.000001 -0.000002 0.000000 0.000001 -0.000002 0.000000 0.715871 -6.838339 -1.806741 38.217801 -36.928951 -10.562123 -0.000241 -81.429030 -0.000252 20.289891 -1.096736 36.803358 0.020278 0.528903 -4.387018 0.029855 0.641938 -5.327406 0.007417 0.320376 -2.655619 -0.000001 0.000003 -0.000001 -4.476090 -9.801954 14.664927 3.939053 7.948718 0.746806 -0.579470 1.574985 2.538711 -0.000001 0.000002 -0.000001 0.020405 0.530817 -4.403001 0.029693 0.640032 -5.311408 0.007411 0.320367 -2.655628 -0.000002 0.000001 -0.000002 0.020405 0.530824 -4.403014 0.029695 0.640035 -5.311411 0.007409 0.320384 -2.655627 -0.000001 -0.000003 -0.000001 0.314370 4.574471 -3.905675 0.017370 -3.414523 -5.820021 0.007411 0.320385 -2.655621 0.000000 0.000001 -0.000001 0.391299 -2.456718 5.845859 28.193587 39.085706 18.190872 -0.000114 76.510010 0.000092 32.488809 12.074092 -44.827170 0.275975 -1.943082 16.163950 0.184631 -1.594793 13.206372 0.046301 -0.802733 6.601889 0.000002 -0.000003 0.000000 -5.232571 1.840866 -5.713463 4.780922 -14.354640 -6.620795 -1.025245 -2.626384 -5.358248 0.000001 -0.000000 -0.000002 0.275979 -1.943080 16.163950 0.184629 -1.594801 13.206365 0.046303 -0.802726 6.601901 0.000001 0.000002 -0.000003 0.275974 -1.943087 16.163952 0.184631 -1.594804 13.206358 0.046304 -0.802730 6.601898 -0.000000 0.000001 0.000002 0.275976 -1.943081 16.163952 0.184629 -1.594802 13.206373 0.046304 -0.802720 6.601901 0.000000 0.000005 -0.000001 -45.738976 -1.900676 19.580662 42.639546 -0.190505 7.048885 -7.075682 2.511150 -23.004210 -1.499181 0.000002 0.000001 -0.000000 -0.000000 -0.000000 -48.256960 -1.390739 -19.210389 44.383191 9.182821 -1.426960 -9.393484 0.005959 16.031453 -0.005410 -0.000005 -0.000001 -0.000000 0.000000 0.000000 
2.601703 178.510925 -11.632755 12.907614 -3.887223 -0.625349 8.809323 0.061720 1.439433 18.152746 -0.180350 1.039057 18.155471 -0.038392 0.978439 -11.453011 -1.265589 -2.064679 -22.774019 -10.322298 4.968979 0.000001 -0.000000 -0.000001 0.000001 -0.000000 -0.000001 0.000001 -0.000000 -0.000001 0.742223 -7.163366 -1.713633 38.490800 -36.824675 -11.357872 -0.000106 -81.289899 -0.000124 20.328258 -1.127712 37.298625 0.020278 0.528904 -4.387015 0.029853 0.641942 -5.327411 0.007417 0.320378 -2.655616 0.000001 -0.000000 -0.000001 -4.476085 -9.801953 14.664927 3.939051 7.948721 0.746804 -0.579474 1.574986 2.538711 0.000003 0.000005 -0.000001 0.020410 0.530817 -4.403001 0.029696 0.640033 -5.311410 0.007409 0.320366 -2.655622 -0.000001 0.000003 -0.000000 0.020403 0.530823 -4.403006 0.029700 0.640033 -5.311411 0.007413 0.320384 -2.655632 -0.000001 -0.000001 -0.000000 0.314369 4.574469 -3.905672 0.017368 -3.414524 -5.820019 0.007412 0.320386 -2.655622 -0.000001 -0.000004 0.000003 0.390084 -2.325867 5.775578 28.598784 38.678607 18.358399 0.000027 76.973855 -0.000017 32.905703 11.454074 -44.683869 0.275949 -1.943086 16.163967 0.184621 -1.594793 13.206360 0.046311 -0.802728 6.601905 0.000001 -0.000003 0.000000 -5.232585 1.840868 -5.713454 4.780925 -14.354640 -6.620797 -1.025249 -2.626382 -5.358251 0.000005 0.000001 -0.000001 0.275948 -1.943088 16.163964 0.184636 -1.594781 13.206359 0.046296 -0.802751 6.601907 -0.000000 0.000001 0.000002 0.275948 -1.943089 16.163962 0.184622 -1.594785 13.206368 0.046309 -0.802746 6.601905 -0.000000 0.000003 -0.000001 0.275946 -1.943083 16.163960 0.184632 -1.594793 13.206360 0.046301 -0.802740 6.601911 -0.000001 0.000003 0.000001 -46.026739 -1.784520 20.246417 42.332020 -0.350386 6.780467 -6.946238 2.485295 -23.040383 -1.525807 -0.000001 0.000001 -0.000000 -0.000000 0.000000 -48.643357 -0.858003 -18.155515 44.473872 9.111521 -1.863926 -9.374452 -0.791954 16.120648 -0.004727 -0.000000 0.000001 0.000000 -0.000000 0.000000 
2.212706 178.578339 -11.595184 13.403516 -4.204393 -0.787121 8.645426 0.070940 1.582952 17.853951 -0.267096 1.140037 17.856604 -0.107798 1.090438 -11.383348 -1.166990 -1.915109 -22.757883 -9.763364 5.611597 0.000000 -0.000000 -0.000000 0.000000 -0.000000 -0.000000 0.000000 -0.000000 -0.000000 0.767532 -7.483992 -1.686211 38.738552 -36.835757 -12.045745 -0.000115 -81.021678 -0.000110 20.296611 -1.108345 37.746002 0.020277 0.528898 -4.387014 0.029857 0.641940 -5.327409 0.007418 0.320375 -2.655622 -0.000001 0.000001 0.000001 -4.476089 -9.801956 14.664923 3.939055 7.948716 0.746802 -0.579471 1.574986 2.538714 0.000000 0.000001 -0.000003 0.020409 0.530818 -4.403008 0.029692 0.640033 -5.311409 0.007407 0.320368 -2.655620 -0.000001 -0.000002 0.000004 0.020406 0.530821 -4.403011 0.029695 0.640031 -5.311411 0.007410 0.320381 -2.655630 0.000001 0.000001 0.000001 0.314372 4.574468 -3.905677 0.017366 -3.414520 -5.820018 0.007412 0.320387 -2.655622 -0.000001 -0.000001 -0.000001 0.388454 -2.236452 5.722884 29.078161 38.315811 18.444477 0.000022 77.474966 -0.000000 33.292640 10.856330 -44.498385 0.275957 -1.943063 16.163953 0.184632 -1.594806 13.206369 0.046294 -0.802718 6.601912 0.000000 -0.000004 -0.000001 -5.232574 1.840877 -5.713457 4.780924 -14.354638 -6.620792 -1.025242 -2.626386 -5.358246 0.000000 0.000000 -0.000002 0.275951 -1.943048 16.163965 0.184632 -1.594808 13.206376 0.046297 -0.802749 6.601906 -0.000000 -0.000000 -0.000004 0.275956 -1.943058 16.163965 0.184641 -1.594817 13.206360 0.046284 -0.802710 6.601920 -0.000000 0.000002 -0.000001 0.275954 -1.943046 16.163962 0.184634 -1.594824 13.206372 0.046295 -0.802719 6.601912 -0.000001 -0.000002 -0.000001 -46.353980 -1.725036 20.871347 42.040921 -0.560503 6.586330 -6.829295 2.471171 -23.075599 -1.496746 0.000002 0.000001 -0.000000 -0.000000 0.000000 -48.971251 -0.436376 -17.167354 44.447145 9.066466 -2.223543 -9.321019 -1.566622 16.201847 -0.004087 0.000003 0.000009 0.000000 0.000000 0.000000 
